<svg xmlns="http://www.w3.org/2000/svg" width="1091" height="1091" viewBox="0 0 1091 1091">
  <defs>
    <clipPath id="clip-Import_Inspection_">
      <rect width="1091" height="1091"/>
    </clipPath>
  </defs>
  <g id="Import_Inspection_" data-name="Import Inspection " clip-path="url(#clip-Import_Inspection_)">
    <path id="Icon" d="M620.356,713H587.711c-45.054,0-88.987-10.792-130.579-32.087a287.736,287.736,0,0,1-261.186,0C153.721,702.208,109.767,713,65.337,713H32.694a32.412,32.412,0,1,1,0-64.823H65.337c41.3,0,83.414-12.775,121.794-36.952a16.611,16.611,0,0,1,17.307.01,226,226,0,0,0,243.88-.01,16.608,16.608,0,0,1,17.306.01c38.684,24.167,80.9,36.942,122.087,36.942h32.644a32.412,32.412,0,1,1,0,64.823Zm-31-129.626h-1.645c-41.962,0-84.276-18.887-119.149-53.169a16.614,16.614,0,0,0-11.4-4.623,15.687,15.687,0,0,0-11.135,4.623c-35.269,34.283-77.708,53.169-119.5,53.169-41.961,0-84.276-18.887-119.149-53.169a16.683,16.683,0,0,0-22.537,0c-35.269,34.283-77.709,53.169-119.5,53.169H63.721L1.695,366.857a32.477,32.477,0,0,1,21.538-41.468l42.1-13.616V162.042c0-35.733,29.3-64.8,65.319-64.8H228.59V32.426A32.572,32.572,0,0,1,261.235,0H391.813a32.587,32.587,0,0,1,32.675,32.426V97.239h97.933c36,0,65.29,29.07,65.29,64.8V311.773l41.782,13.616a32.416,32.416,0,0,1,19.6,16.218,34.05,34.05,0,0,1,1.969,25.25l-61.7,216.488ZM326.373,230.182a67.9,67.9,0,0,1,20.4,3.153L522.421,290.71V194.458a32.569,32.569,0,0,0-32.644-32.416H163.3a32.569,32.569,0,0,0-32.644,32.416V290.71l175.3-57.376A68.092,68.092,0,0,1,326.373,230.182Z" transform="translate(219 189)" fill="#fff"/>
  </g>
</svg>
