<svg xmlns="http://www.w3.org/2000/svg" width="1091" height="1091" viewBox="0 0 1091 1091">
  <defs>
    <clipPath id="clip-Inspection_">
      <rect width="1091" height="1091"/>
    </clipPath>
  </defs>
  <g id="Inspection_" data-name="Inspection " clip-path="url(#clip-Inspection_)">
    <path id="Icon" d="M369,514a387.851,387.851,0,0,1-225.633-72.08A404.213,404.213,0,0,1,0,257.016,404.248,404.248,0,0,1,143.367,72.1a389.134,389.134,0,0,1,451.277,0A404.285,404.285,0,0,1,738,257.016a404.192,404.192,0,0,1-143.356,184.9A387.849,387.849,0,0,1,369,514Zm0-428.328c-92.478,0-167.714,76.864-167.714,171.344,0,94.461,75.236,171.313,167.714,171.313,92.494,0,167.744-76.852,167.744-171.313C536.744,162.536,461.494,85.672,369,85.672ZM369,359.8c-55.485,0-100.628-46.109-100.628-102.787S313.515,154.229,369,154.229c55.5,0,100.658,46.109,100.658,102.787S424.5,359.8,369,359.8Z" transform="translate(177 289)" fill="#fff"/>
  </g>
</svg>
