<svg xmlns="http://www.w3.org/2000/svg" width="1091" height="1091" viewBox="0 0 1091 1091">
  <defs>
    <clipPath id="clip-Standards_Levy_">
      <rect width="1091" height="1091"/>
    </clipPath>
  </defs>
  <g id="Standards_Levy_" data-name="Standards Levy " clip-path="url(#clip-Standards_Levy_)">
    <g id="invoice" transform="translate(338.025 225.947)">
      <g id="Group_46" data-name="Group 46" transform="translate(0)">
        <path id="Path_1" data-name="Path 1" d="M524.207,0H82.992A18.724,18.724,0,0,0,64.268,18.724v546.5a18.731,18.731,0,0,0,5.483,13.24L124.9,633.621a18.725,18.725,0,0,0,26.48,0L193.3,591.709l41.91,41.913a18.722,18.722,0,0,0,26.479,0L303.6,591.709l41.913,41.913a18.721,18.721,0,0,0,26.479,0L413.9,591.709l41.911,41.913a18.722,18.722,0,0,0,26.479,0l55.153-55.153a18.725,18.725,0,0,0,5.485-13.24V18.724A18.719,18.719,0,0,0,524.207,0ZM284.872,140.642V119a18.724,18.724,0,1,1,37.447,0v21.386h21.389a18.724,18.724,0,0,1,0,37.448h-53.48a21.388,21.388,0,0,0,0,42.775h26.741a58.829,58.829,0,0,1,5.35,117.414v21.641a18.724,18.724,0,1,1-37.447,0V338.276H263.486a18.724,18.724,0,1,1,0-37.448h53.484a21.386,21.386,0,1,0,0-42.773H290.228a58.829,58.829,0,0,1-5.356-117.414Zm119,338.022H203.323a18.724,18.724,0,0,1,0-37.448H403.875a18.724,18.724,0,1,1,0,37.448Z" transform="translate(-64.268)" fill="#fff"/>
      </g>
    </g>
  </g>
</svg>
