<svg xmlns="http://www.w3.org/2000/svg" xmlns:xlink="http://www.w3.org/1999/xlink" width="500" zoomAndPan="magnify" viewBox="0 0 375 374.999991" height="500" preserveAspectRatio="xMidYMid meet" version="1.0"><defs><g/></defs><g fill="#ffffff" fill-opacity="1"><g transform="translate(35.800582, 198.668447)"><g><path d="M 49.125 -62.765625 L 49.125 -58 L 21.0625 -58 C 19.820312 -58 18.582031 -57.773438 17.34375 -57.328125 C 16.113281 -56.890625 14.988281 -56.25 13.96875 -55.40625 C 12.957031 -54.570312 12.117188 -53.492188 11.453125 -52.171875 C 10.796875 -50.847656 10.46875 -49.347656 10.46875 -47.671875 C 10.46875 -45.554688 10.972656 -43.8125 11.984375 -42.4375 C 12.992188 -41.070312 14.335938 -39.925781 16.015625 -39 C 17.703125 -38.070312 19.644531 -37.296875 21.84375 -36.671875 C 24.050781 -36.054688 26.347656 -35.484375 28.734375 -34.953125 C 31.734375 -34.253906 34.734375 -33.53125 37.734375 -32.78125 C 40.742188 -32.03125 43.4375 -30.988281 45.8125 -29.65625 C 48.195312 -28.332031 50.140625 -26.609375 51.640625 -24.484375 C 53.140625 -22.367188 53.890625 -19.59375 53.890625 -16.15625 C 53.890625 -10.507812 51.945312 -6.40625 48.0625 -3.84375 C 44.1875 -1.28125 39.023438 0 32.578125 0 L 5.03125 0 L 5.03125 -4.765625 L 33.640625 -4.765625 C 38.753906 -4.765625 42.476562 -5.710938 44.8125 -7.609375 C 47.15625 -9.515625 48.328125 -12.097656 48.328125 -15.359375 C 48.328125 -18.273438 47.554688 -20.613281 46.015625 -22.375 C 44.472656 -24.144531 42.460938 -25.582031 39.984375 -26.6875 C 37.515625 -27.789062 34.734375 -28.671875 31.640625 -29.328125 C 28.554688 -29.992188 25.515625 -30.722656 22.515625 -31.515625 C 20.128906 -32.128906 17.875 -32.8125 15.75 -33.5625 C 13.632812 -34.3125 11.78125 -35.304688 10.1875 -36.546875 C 8.601562 -37.785156 7.328125 -39.285156 6.359375 -41.046875 C 5.390625 -42.816406 4.90625 -44.984375 4.90625 -47.546875 C 4.90625 -49.742188 5.320312 -51.789062 6.15625 -53.6875 C 7 -55.59375 8.125 -57.207031 9.53125 -58.53125 C 10.945312 -59.851562 12.601562 -60.890625 14.5 -61.640625 C 16.394531 -62.390625 18.40625 -62.765625 20.53125 -62.765625 Z M 49.125 -62.765625 "/></g></g></g><g fill="#ffffff" fill-opacity="1"><g transform="translate(94.594376, 198.668447)"><g><path d="M 65.6875 0 L 60.65625 0 L 60.65625 -31.78125 C 60.65625 -35.3125 60.015625 -38.734375 58.734375 -42.046875 C 57.453125 -45.359375 55.6875 -48.289062 53.4375 -50.84375 C 51.1875 -53.40625 48.492188 -55.457031 45.359375 -57 C 42.222656 -58.550781 38.800781 -59.328125 35.09375 -59.328125 C 31.644531 -59.328125 28.398438 -58.578125 25.359375 -57.078125 C 22.316406 -55.578125 19.644531 -53.566406 17.34375 -51.046875 C 15.050781 -48.535156 13.21875 -45.578125 11.84375 -42.171875 C 10.476562 -38.773438 9.796875 -35.179688 9.796875 -31.390625 C 9.796875 -27.503906 10.476562 -23.882812 11.84375 -20.53125 C 13.21875 -17.175781 15.070312 -14.21875 17.40625 -11.65625 C 19.75 -9.09375 22.441406 -7.082031 25.484375 -5.625 C 28.535156 -4.164062 31.738281 -3.4375 35.09375 -3.4375 C 39.332031 -3.4375 42.929688 -4.207031 45.890625 -5.75 C 48.847656 -7.300781 51.78125 -9.578125 54.6875 -12.578125 L 54.6875 -6.625 C 51.332031 -3.800781 48.066406 -1.769531 44.890625 -0.53125 C 41.710938 0.707031 38.445312 1.328125 35.09375 1.328125 C 30.769531 1.328125 26.726562 0.488281 22.96875 -1.1875 C 19.21875 -2.863281 15.972656 -5.160156 13.234375 -8.078125 C 10.503906 -10.992188 8.363281 -14.4375 6.8125 -18.40625 C 5.269531 -22.375 4.5 -26.703125 4.5 -31.390625 C 4.5 -35.972656 5.269531 -40.273438 6.8125 -44.296875 C 8.363281 -48.316406 10.503906 -51.78125 13.234375 -54.6875 C 15.972656 -57.601562 19.195312 -59.898438 22.90625 -61.578125 C 26.613281 -63.253906 30.675781 -64.09375 35.09375 -64.09375 C 39.507812 -64.09375 43.59375 -63.226562 47.34375 -61.5 C 51.09375 -59.78125 54.3125 -57.460938 57 -54.546875 C 59.695312 -51.640625 61.816406 -48.222656 63.359375 -44.296875 C 64.910156 -40.367188 65.6875 -36.238281 65.6875 -31.90625 Z M 65.6875 0 "/></g></g></g><g fill="#ffffff" fill-opacity="1"><g transform="translate(168.219058, 198.668447)"><g><path d="M 65.6875 0 L 60.65625 0 L 60.65625 -31.78125 C 60.65625 -35.3125 60.015625 -38.734375 58.734375 -42.046875 C 57.453125 -45.359375 55.6875 -48.289062 53.4375 -50.84375 C 51.1875 -53.40625 48.492188 -55.457031 45.359375 -57 C 42.222656 -58.550781 38.800781 -59.328125 35.09375 -59.328125 C 31.644531 -59.328125 28.398438 -58.578125 25.359375 -57.078125 C 22.316406 -55.578125 19.644531 -53.566406 17.34375 -51.046875 C 15.050781 -48.535156 13.21875 -45.578125 11.84375 -42.171875 C 10.476562 -38.773438 9.796875 -35.179688 9.796875 -31.390625 C 9.796875 -27.503906 10.476562 -23.882812 11.84375 -20.53125 C 13.21875 -17.175781 15.070312 -14.21875 17.40625 -11.65625 C 19.75 -9.09375 22.441406 -7.082031 25.484375 -5.625 C 28.535156 -4.164062 31.738281 -3.4375 35.09375 -3.4375 C 39.332031 -3.4375 42.929688 -4.207031 45.890625 -5.75 C 48.847656 -7.300781 51.78125 -9.578125 54.6875 -12.578125 L 54.6875 -6.625 C 51.332031 -3.800781 48.066406 -1.769531 44.890625 -0.53125 C 41.710938 0.707031 38.445312 1.328125 35.09375 1.328125 C 30.769531 1.328125 26.726562 0.488281 22.96875 -1.1875 C 19.21875 -2.863281 15.972656 -5.160156 13.234375 -8.078125 C 10.503906 -10.992188 8.363281 -14.4375 6.8125 -18.40625 C 5.269531 -22.375 4.5 -26.703125 4.5 -31.390625 C 4.5 -35.972656 5.269531 -40.273438 6.8125 -44.296875 C 8.363281 -48.316406 10.503906 -51.78125 13.234375 -54.6875 C 15.972656 -57.601562 19.195312 -59.898438 22.90625 -61.578125 C 26.613281 -63.253906 30.675781 -64.09375 35.09375 -64.09375 C 39.507812 -64.09375 43.59375 -63.226562 47.34375 -61.5 C 51.09375 -59.78125 54.3125 -57.460938 57 -54.546875 C 59.695312 -51.640625 61.816406 -48.222656 63.359375 -44.296875 C 64.910156 -40.367188 65.6875 -36.238281 65.6875 -31.90625 Z M 65.6875 0 "/></g></g></g><g fill="#ffffff" fill-opacity="1"><g transform="translate(241.843741, 198.668447)"><g><path d="M 47.9375 -51.78125 C 49.257812 -55.75 51.441406 -58.789062 54.484375 -60.90625 C 57.535156 -63.03125 61.578125 -64.09375 66.609375 -64.09375 C 69.785156 -64.09375 72.675781 -63.539062 75.28125 -62.4375 C 77.882812 -61.332031 80.132812 -59.804688 82.03125 -57.859375 C 83.925781 -55.921875 85.378906 -53.601562 86.390625 -50.90625 C 87.410156 -48.21875 87.921875 -45.285156 87.921875 -42.109375 L 87.921875 0 L 82.890625 0 L 82.890625 -41.984375 C 82.890625 -44.535156 82.46875 -46.867188 81.625 -48.984375 C 80.789062 -51.109375 79.644531 -52.941406 78.1875 -54.484375 C 76.738281 -56.035156 75.019531 -57.226562 73.03125 -58.0625 C 71.039062 -58.90625 68.898438 -59.328125 66.609375 -59.328125 C 64.222656 -59.328125 62.035156 -58.90625 60.046875 -58.0625 C 58.066406 -57.226562 56.347656 -56.035156 54.890625 -54.484375 C 53.429688 -52.941406 52.304688 -51.109375 51.515625 -48.984375 C 50.722656 -46.867188 50.328125 -44.535156 50.328125 -41.984375 L 50.328125 0 L 45.28125 0 L 45.28125 -41.984375 C 45.28125 -44.535156 44.859375 -46.867188 44.015625 -48.984375 C 43.179688 -51.109375 42.035156 -52.941406 40.578125 -54.484375 C 39.128906 -56.035156 37.410156 -57.226562 35.421875 -58.0625 C 33.429688 -58.90625 31.289062 -59.328125 29 -59.328125 C 26.707031 -59.328125 24.566406 -58.90625 22.578125 -58.0625 C 20.585938 -57.226562 18.863281 -56.035156 17.40625 -54.484375 C 15.957031 -52.941406 14.8125 -51.109375 13.96875 -48.984375 C 13.132812 -46.867188 12.71875 -44.535156 12.71875 -41.984375 L 12.71875 0 L 7.6875 0 L 7.6875 -42.109375 C 7.6875 -45.285156 8.191406 -48.21875 9.203125 -50.90625 C 10.210938 -53.601562 11.664062 -55.921875 13.5625 -57.859375 C 15.46875 -59.804688 17.722656 -61.332031 20.328125 -62.4375 C 22.929688 -63.539062 25.820312 -64.09375 29 -64.09375 C 34.03125 -64.09375 38.066406 -63.03125 41.109375 -60.90625 C 44.160156 -58.789062 46.347656 -55.75 47.671875 -51.78125 Z M 47.9375 -51.78125 "/></g></g></g></svg>