<svg xmlns="http://www.w3.org/2000/svg" width="296.493" height="415.067" viewBox="0 0 296.493 415.067">
  <g id="Group_1" data-name="Group 1" transform="translate(-253 -215)">
    <circle id="Ellipse_1" data-name="Ellipse 1" cx="136" cy="136" r="136" transform="translate(266 282)" fill="#f9f9f9"/>
    <g id="humaaans_standing-18" data-name="humaaans/standing-18" transform="translate(253 215)">
      <g id="humaaan-2" transform="translate(0 0)">
        <g id="Head_Front_Airy" data-name="Head/Front/Airy" transform="translate(12.757)">
          <g id="Head" transform="translate(117.9 36.424)">
            <path id="Path_1" data-name="Path 1" d="M7.92,33.06C3.5,27.875.513,21.522,1.013,14.4,2.452-6.111,31.007-1.6,36.562,8.755s4.895,36.615-2.284,38.466c-2.863.738-8.962-1.07-15.169-4.811L23,69.973H0Z" transform="translate(0 0)" fill="#b28b67" fill-rule="evenodd"/>
          </g>
          <path id="hair" d="M66.607,25.664c-3.032-.5-11.2-.839-12.7-.839-.962,0-2,.22-2.575-.664-.467-.723-.3-1.947-.435-2.786-.162-.975-.391-1.938-.624-2.9a29.465,29.465,0,0,0-3.06-7.772A23.89,23.89,0,0,0,35.888.453,36.363,36.363,0,0,0,18.7-1.912C12.525-1.412,6.94.625,1.114,2.542A36.848,36.848,0,0,1-16.059,4.2C-21.91,3.3-26.33.126-31.265-2.884c-5.052-3.081-10.825-5.1-16.8-4.633A32.348,32.348,0,0,0-63.384-1.707C-67.7,1.17-71.255,4.631-73.264,9.5c-2.161,5.24-2.159,10.992,1.395,15.623,5.152,6.713,14.716,8.449,22.673,8.276a43.318,43.318,0,0,0,13.468-2.468c5.795-2.038,10.8-5.493,16.224-8.3a42.22,42.22,0,0,1,7.931-3.174c2.675-.755,5.31-1.1,7.731.514a36.507,36.507,0,0,0,7.789,4.459,25.119,25.119,0,0,0,8.786,1.578c5.829-.045,11.574-1.861,17.235-3.078,4.616-.992,9.556-1.98,14.262-1.027,1.964.4,4.832,1.219,5.542,3.26C37.832,27.334,33.143,42.1,36.509,52.937c1.816,5.85,12.735,12.688,16.98,9.613,2.69-1.948,1.057-4.506,0-6.195-2.024-3.234-2.716-7.387,1.029-9.638,3.23-1.942,6.626,2.669,6.69,2.664.888-.07,8.559-4.408,13.844-10.739,5.213.309,6-3.129,4.76-5.94S70.8,26.352,66.607,25.664Z" transform="translate(74.742 7.583)" fill="#191847" fill-rule="evenodd"/>
        </g>
        <g id="Bottom_Standing_Jogging" data-name="Bottom/Standing/Jogging" transform="translate(0 185.977)">
          <path id="Leg" d="M140.819,0l71.226,119.076,53.4,100.668h11.5L187.475,0Z" transform="translate(-15.904 0)" fill="#997659" fill-rule="evenodd"/>
          <g id="Accessories_Shoe_Flat-Sneaker" data-name="Accessories/Shoe/Flat-Sneaker" transform="translate(240.898 209.279)">
            <path id="shoe" d="M2.692,26.759a20.581,20.581,0,0,0-1.609,6.426,48.1,48.1,0,0,0,.864,7.567H56.01q2.107-6.967-2.433-7.522t-7.544-1l-25.128-11.2a.959.959,0,0,0-1.266.485l-.011.025-1.615,3.918a17.238,17.238,0,0,1-6.831,1.961,15.469,15.469,0,0,1-5.9-1.725h0a1.917,1.917,0,0,0-2.542.944Q2.716,26.695,2.692,26.759Z" transform="translate(-1.083 -20.941)" fill="#e4e4e4" fill-rule="evenodd"/>
          </g>
          <path id="Pant" d="M249.072,203.624l22.181-6.709Q256.676,153.337,235.521,101T190.081,0H127.435q27,61.568,57.245,111.885A757.252,757.252,0,0,0,249.072,203.624Z" transform="translate(-14.363 0)" fill="#faa330" fill-rule="evenodd"/>
          <path id="Leg-2" data-name="Leg" d="M121.348,0c-6.722,41.844-19.688,95.3-20.911,96.955q-1.224,1.65-88.1,29.521l2.485,10.143Q118.422,121.67,124,113.424C129.575,105.178,157.42,40.031,168.205,0Z" transform="translate(-1.115 0)" fill="#b28b67" fill-rule="evenodd"/>
          <path id="Pant-2" data-name="Pant" d="M35.345,117.708l4.376,16.335q77.486,6.8,94.955-9.821T174.495,0H114.759Q100.6,88.114,98.925,91.813T35.345,117.708Z" transform="translate(-3.763 0)" fill="#faa330" fill-rule="evenodd"/>
          <g id="Accessories_Shoe_Flat-Sneaker-2" data-name="Accessories/Shoe/Flat-Sneaker" transform="translate(19.51 119.656) rotate(80)">
            <path id="shoe-2" data-name="shoe" d="M1.609,5.818A20.581,20.581,0,0,0,0,12.244a48.1,48.1,0,0,0,.864,7.567H54.927q2.107-6.967-2.433-7.522t-7.544-1L19.822.083a.959.959,0,0,0-1.266.485l-.011.025L16.931,4.512A17.238,17.238,0,0,1,10.1,6.473,15.469,15.469,0,0,1,4.2,4.748h0a1.917,1.917,0,0,0-2.542.944Q1.633,5.754,1.609,5.818Z" transform="translate(0 0)" fill="#e4e4e4" fill-rule="evenodd"/>
          </g>
        </g>
        <g id="Body_Jacket" data-name="Body/Jacket" transform="translate(54.137 85.319)">
          <path id="Skin" d="M190.258,96.54l27.153,26.49a82.308,82.308,0,0,1,19.421,11.163c1.134,1.369,2.37,3.992-2.97,2.818s-11.008-2.168-12.012-.432,1.954,4.4.1,6.669q-1.856,2.272-12.474-14.456L181.24,112.144ZM69.735,100.275l20.031.079q-18.552,59.891-20.031,63.555c-2.218,5.5,2.476,13.868,4.483,18.367-6.537,2.925-5.841-7.908-14.087-4.071-7.527,3.5-13.253,9.847-21.949,4.481-1.069-.66-2.241-3.144.59-5.085,7.053-4.836,17.216-13.3,18.589-16.086Q60.169,155.815,69.735,100.275Z" transform="translate(-37.006 -11.113)" fill="#b28b67" fill-rule="evenodd"/>
          <path id="Coat-Back" d="M0,2.139,8.133,0Q34.117,51.4,91.06,90.288L67.138,125.15C28.1,86.925,2.541,46.2,0,2.139Z" transform="translate(89.84 2.981) rotate(5)" fill="#06c" fill-rule="evenodd"/>
          <path id="Shirt" d="M97.49,109.273H171.3Q145.649,46.908,145.648,3.317L123.385,0C105.887,28.141,100.946,62.788,97.49,109.273Z" transform="translate(-43.968 0)" fill="#dde3e9" fill-rule="evenodd"/>
          <path id="Coat-Front" d="M118.549.016A.14.14,0,0,1,118.558,0h1.453q2.608.09,7.946.324l5.38,15.374q.853,28.117,9.969,113.326H94.924q.19,5.885.627,11.881H59.577Q67.649,49.84,118.531,0Z" transform="translate(-39.604 0)" fill="#06c" fill-rule="evenodd"/>
          <path id="Shade" d="M102.7,89.077q2.065,36.685,10.343,50.579H99.516A252.874,252.874,0,0,1,102.7,89.077Z" transform="translate(-44.183 -10.254)" fill="rgba(0,0,0,0.1)" fill-rule="evenodd"/>
          <path id="Light" d="M111.692,111.212l23.858-11.09v11.09Z" transform="translate(-45.603 -11.525)" fill="rgba(255,255,255,0.2)" fill-rule="evenodd"/>
        </g>
      </g>
    </g>
  </g>
</svg>
