<svg xmlns="http://www.w3.org/2000/svg" xmlns:xlink="http://www.w3.org/1999/xlink" width="500" zoomAndPan="magnify" viewBox="0 0 375 374.999991" height="500" preserveAspectRatio="xMidYMid meet" version="1.0"><defs><g/></defs><g fill="#000000" fill-opacity="1"><g transform="translate(7.239262, 212.838084)"><g><path d="M 42.984375 -54.90625 L 42.984375 -50.734375 L 18.421875 -50.734375 C 17.335938 -50.734375 16.253906 -50.539062 15.171875 -50.15625 C 14.085938 -49.769531 13.101562 -49.207031 12.21875 -48.46875 C 11.332031 -47.738281 10.597656 -46.796875 10.015625 -45.640625 C 9.441406 -44.484375 9.15625 -43.171875 9.15625 -41.703125 C 9.15625 -39.847656 9.597656 -38.320312 10.484375 -37.125 C 11.367188 -35.925781 12.546875 -34.921875 14.015625 -34.109375 C 15.484375 -33.304688 17.179688 -32.632812 19.109375 -32.09375 C 21.046875 -31.550781 23.054688 -31.046875 25.140625 -30.578125 C 27.765625 -29.960938 30.390625 -29.328125 33.015625 -28.671875 C 35.640625 -28.015625 37.992188 -27.109375 40.078125 -25.953125 C 42.160156 -24.796875 43.859375 -23.289062 45.171875 -21.4375 C 46.484375 -19.582031 47.140625 -17.148438 47.140625 -14.140625 C 47.140625 -9.191406 45.441406 -5.597656 42.046875 -3.359375 C 38.648438 -1.117188 34.132812 0 28.5 0 L 4.40625 0 L 4.40625 -4.171875 L 29.421875 -4.171875 C 33.898438 -4.171875 37.160156 -5 39.203125 -6.65625 C 41.253906 -8.320312 42.28125 -10.582031 42.28125 -13.4375 C 42.28125 -15.988281 41.601562 -18.035156 40.25 -19.578125 C 38.90625 -21.117188 37.148438 -22.375 34.984375 -23.34375 C 32.816406 -24.3125 30.378906 -25.082031 27.671875 -25.65625 C 24.972656 -26.238281 22.3125 -26.878906 19.6875 -27.578125 C 17.601562 -28.109375 15.632812 -28.703125 13.78125 -29.359375 C 11.925781 -30.015625 10.300781 -30.882812 8.90625 -31.96875 C 7.519531 -33.050781 6.398438 -34.363281 5.546875 -35.90625 C 4.703125 -37.457031 4.28125 -39.351562 4.28125 -41.59375 C 4.28125 -43.519531 4.644531 -45.3125 5.375 -46.96875 C 6.113281 -48.632812 7.097656 -50.046875 8.328125 -51.203125 C 9.566406 -52.359375 11.015625 -53.265625 12.671875 -53.921875 C 14.335938 -54.578125 16.097656 -54.90625 17.953125 -54.90625 Z M 42.984375 -54.90625 "/></g></g></g><g fill="#000000" fill-opacity="1"><g transform="translate(58.672119, 212.838084)"><g/></g></g><g fill="#000000" fill-opacity="1"><g transform="translate(90.875575, 212.838084)"><g><path d="M 57.453125 0 L 53.0625 0 L 53.0625 -27.796875 C 53.0625 -30.890625 52.5 -33.882812 51.375 -36.78125 C 50.257812 -39.675781 48.710938 -42.242188 46.734375 -44.484375 C 44.765625 -46.722656 42.410156 -48.515625 39.671875 -49.859375 C 36.929688 -51.210938 33.941406 -51.890625 30.703125 -51.890625 C 27.691406 -51.890625 24.851562 -51.234375 22.1875 -49.921875 C 19.519531 -48.609375 17.179688 -46.851562 15.171875 -44.65625 C 13.160156 -42.457031 11.554688 -39.867188 10.359375 -36.890625 C 9.171875 -33.921875 8.578125 -30.773438 8.578125 -27.453125 C 8.578125 -24.054688 9.171875 -20.890625 10.359375 -17.953125 C 11.554688 -15.015625 13.175781 -12.425781 15.21875 -10.1875 C 17.269531 -7.945312 19.628906 -6.191406 22.296875 -4.921875 C 24.960938 -3.648438 27.765625 -3.015625 30.703125 -3.015625 C 34.410156 -3.015625 37.554688 -3.6875 40.140625 -5.03125 C 42.722656 -6.382812 45.289062 -8.375 47.84375 -11 L 47.84375 -5.796875 C 44.90625 -3.316406 42.046875 -1.535156 39.265625 -0.453125 C 36.484375 0.617188 33.628906 1.15625 30.703125 1.15625 C 26.910156 1.15625 23.375 0.421875 20.09375 -1.046875 C 16.8125 -2.515625 13.972656 -4.519531 11.578125 -7.0625 C 9.191406 -9.613281 7.320312 -12.625 5.96875 -16.09375 C 4.613281 -19.570312 3.9375 -23.359375 3.9375 -27.453125 C 3.9375 -31.472656 4.613281 -35.238281 5.96875 -38.75 C 7.320312 -42.257812 9.191406 -45.289062 11.578125 -47.84375 C 13.972656 -50.394531 16.789062 -52.398438 20.03125 -53.859375 C 23.28125 -55.328125 26.835938 -56.0625 30.703125 -56.0625 C 34.554688 -56.0625 38.125 -55.304688 41.40625 -53.796875 C 44.695312 -52.296875 47.519531 -50.269531 49.875 -47.71875 C 52.226562 -45.175781 54.078125 -42.1875 55.421875 -38.75 C 56.773438 -35.3125 57.453125 -31.703125 57.453125 -27.921875 Z M 57.453125 0 "/></g></g></g><g fill="#000000" fill-opacity="1"><g transform="translate(155.282484, 212.838084)"><g/></g></g><g fill="#000000" fill-opacity="1"><g transform="translate(187.485939, 212.838084)"><g><path d="M 57.453125 0 L 53.0625 0 L 53.0625 -27.796875 C 53.0625 -30.890625 52.5 -33.882812 51.375 -36.78125 C 50.257812 -39.675781 48.710938 -42.242188 46.734375 -44.484375 C 44.765625 -46.722656 42.410156 -48.515625 39.671875 -49.859375 C 36.929688 -51.210938 33.941406 -51.890625 30.703125 -51.890625 C 27.691406 -51.890625 24.851562 -51.234375 22.1875 -49.921875 C 19.519531 -48.609375 17.179688 -46.851562 15.171875 -44.65625 C 13.160156 -42.457031 11.554688 -39.867188 10.359375 -36.890625 C 9.171875 -33.921875 8.578125 -30.773438 8.578125 -27.453125 C 8.578125 -24.054688 9.171875 -20.890625 10.359375 -17.953125 C 11.554688 -15.015625 13.175781 -12.425781 15.21875 -10.1875 C 17.269531 -7.945312 19.628906 -6.191406 22.296875 -4.921875 C 24.960938 -3.648438 27.765625 -3.015625 30.703125 -3.015625 C 34.410156 -3.015625 37.554688 -3.6875 40.140625 -5.03125 C 42.722656 -6.382812 45.289062 -8.375 47.84375 -11 L 47.84375 -5.796875 C 44.90625 -3.316406 42.046875 -1.535156 39.265625 -0.453125 C 36.484375 0.617188 33.628906 1.15625 30.703125 1.15625 C 26.910156 1.15625 23.375 0.421875 20.09375 -1.046875 C 16.8125 -2.515625 13.972656 -4.519531 11.578125 -7.0625 C 9.191406 -9.613281 7.320312 -12.625 5.96875 -16.09375 C 4.613281 -19.570312 3.9375 -23.359375 3.9375 -27.453125 C 3.9375 -31.472656 4.613281 -35.238281 5.96875 -38.75 C 7.320312 -42.257812 9.191406 -45.289062 11.578125 -47.84375 C 13.972656 -50.394531 16.789062 -52.398438 20.03125 -53.859375 C 23.28125 -55.328125 26.835938 -56.0625 30.703125 -56.0625 C 34.554688 -56.0625 38.125 -55.304688 41.40625 -53.796875 C 44.695312 -52.296875 47.519531 -50.269531 49.875 -47.71875 C 52.226562 -45.175781 54.078125 -42.1875 55.421875 -38.75 C 56.773438 -35.3125 57.453125 -31.703125 57.453125 -27.921875 Z M 57.453125 0 "/></g></g></g><g fill="#000000" fill-opacity="1"><g transform="translate(251.892849, 212.838084)"><g/></g></g><g fill="#000000" fill-opacity="1"><g transform="translate(284.096315, 212.838084)"><g><path d="M 41.9375 -45.296875 C 43.09375 -48.773438 45.003906 -51.4375 47.671875 -53.28125 C 50.335938 -55.132812 53.867188 -56.0625 58.265625 -56.0625 C 61.046875 -56.0625 63.578125 -55.578125 65.859375 -54.609375 C 68.140625 -53.648438 70.109375 -52.320312 71.765625 -50.625 C 73.421875 -48.925781 74.691406 -46.898438 75.578125 -44.546875 C 76.472656 -42.191406 76.921875 -39.625 76.921875 -36.84375 L 76.921875 0 L 72.515625 0 L 72.515625 -36.71875 C 72.515625 -38.957031 72.144531 -41.003906 71.40625 -42.859375 C 70.675781 -44.710938 69.675781 -46.316406 68.40625 -47.671875 C 67.132812 -49.023438 65.628906 -50.066406 63.890625 -50.796875 C 62.148438 -51.523438 60.273438 -51.890625 58.265625 -51.890625 C 56.179688 -51.890625 54.269531 -51.523438 52.53125 -50.796875 C 50.789062 -50.066406 49.285156 -49.023438 48.015625 -47.671875 C 46.742188 -46.316406 45.757812 -44.710938 45.0625 -42.859375 C 44.363281 -41.003906 44.015625 -38.957031 44.015625 -36.71875 L 44.015625 0 L 39.625 0 L 39.625 -36.71875 C 39.625 -38.957031 39.253906 -41.003906 38.515625 -42.859375 C 37.785156 -44.710938 36.78125 -46.316406 35.5 -47.671875 C 34.226562 -49.023438 32.722656 -50.066406 30.984375 -50.796875 C 29.242188 -51.523438 27.375 -51.890625 25.375 -51.890625 C 23.363281 -51.890625 21.488281 -51.523438 19.75 -50.796875 C 18.007812 -50.066406 16.503906 -49.023438 15.234375 -47.671875 C 13.960938 -46.316406 12.957031 -44.710938 12.21875 -42.859375 C 11.488281 -41.003906 11.125 -38.957031 11.125 -36.71875 L 11.125 0 L 6.71875 0 L 6.71875 -36.84375 C 6.71875 -39.625 7.160156 -42.191406 8.046875 -44.546875 C 8.941406 -46.898438 10.21875 -48.925781 11.875 -50.625 C 13.53125 -52.320312 15.5 -53.648438 17.78125 -54.609375 C 20.0625 -55.578125 22.59375 -56.0625 25.375 -56.0625 C 29.769531 -56.0625 33.300781 -55.132812 35.96875 -53.28125 C 38.632812 -51.4375 40.546875 -48.773438 41.703125 -45.296875 Z M 41.9375 -45.296875 "/></g></g></g></svg>