<svg xmlns="http://www.w3.org/2000/svg" width="1091" height="1091" viewBox="0 0 1091 1091">
  <defs>
    <clipPath id="clip-Settings_">
      <rect width="1091" height="1091"/>
    </clipPath>
  </defs>
  <g id="Settings_" data-name="Settings " clip-path="url(#clip-Settings_)">
    <path id="Icon"
          d="M413.561,372.335,568.036,527a51.167,51.167,0,1,1-72.359,72.363L340.422,444.109a126.924,126.924,0,0,1-134.385-28.862c-39.206-39.2-47.2-97.524-24.38-144.919l70.8,70.8a19.083,19.083,0,0,0,27.5,0l31.01-31.01a19.418,19.418,0,0,0,0-27.5l-70.8-70.807C287.37,188.8,346.078,196.8,385.282,236A126.927,126.927,0,0,1,413.561,372.335Z"
          transform="translate(169.448 138.776)" fill="#fff"/>
  </g>
</svg>
