<svg xmlns="http://www.w3.org/2000/svg" xmlns:xlink="http://www.w3.org/1999/xlink" width="1091" height="1091" viewBox="0 0 1091 1091">
  <defs>
    <clipPath id="clip-My_Account">
      <rect width="1091" height="1091"/>
    </clipPath>
  </defs>
  <g id="My_Account" data-name="My Account" clip-path="url(#clip-My_Account)">
    <path id="Icon" d="M636.235,1998.07a31.769,31.769,0,0,1-22.632-9.335l-65.941-66.582c-12.026-12.37-12.026-32.243,0-44.3l.316-.316a31.572,31.572,0,0,1,22.434-9.309,30.7,30.7,0,0,1,22.177,9.309l43.635,43.637L777.339,1779.1a31.693,31.693,0,0,1,44.926,0l.316.316c12.029,12.376,12.029,32.243,0,44.3L658.845,1988.735A31.692,31.692,0,0,1,636.235,1998.07ZM525.7,1995.759H239v-63.74c0-26.1,16.572-63.858,95.522-95.49,55.065-22.06,119.684-31.937,159.3-31.937a292.247,292.247,0,0,1,31.881,1.925l-26.779,26.119a95.482,95.482,0,0,0-.631,135.711l27.355,27.358ZM493.82,1740.88a127.56,127.56,0,0,1-127.41-127.421c0-70.282,57.156-127.458,127.41-127.458,70.27,0,127.438,57.177,127.438,127.458C621.259,1683.719,564.09,1740.88,493.82,1740.88Z" transform="translate(10.198 -1197)" fill="#fff"/>
  </g>
</svg>
