<svg xmlns="http://www.w3.org/2000/svg" xmlns:xlink="http://www.w3.org/1999/xlink" width="1091" height="1091"
     viewBox="0 0 1091 1091">
    <defs>
        <clipPath id="clip-Quality_Assurance_">
            <rect width="1091" height="1091"/>
        </clipPath>
    </defs>
    <g id="Quality_Assurance_" data-name="Quality Assurance " clip-path="url(#clip-Quality_Assurance_)">
        <path id="Icon"
              d="M489.052,610.974H61.124A61.177,61.177,0,0,1,0,549.882v-427.7A61.178,61.178,0,0,1,61.124,61.091H188.9C202.146,24.558,236.791,0,275.089,0c38.331,0,72.967,24.55,86.185,61.091H489.052a61.179,61.179,0,0,1,61.125,61.092v427.7A61.178,61.178,0,0,1,489.052,610.974Zm-354.4-275.016a30.47,30.47,0,0,0-21.565,52.012l79.17,79.128a30.431,30.431,0,0,0,21.666,8.928,29.662,29.662,0,0,0,21.441-8.928L436.784,265.785A30.473,30.473,0,0,0,393.677,222.7L213.962,402.321,156.2,344.886A30.281,30.281,0,0,0,134.653,335.958ZM275.089,61.091a30.56,30.56,0,1,0,30.562,30.546A30.589,30.589,0,0,0,275.089,61.091Z"
              transform="translate(270 240)" fill="#fff"/>
    </g>
</svg>
